<svg width="599" height="720" xmlns="http://www.w3.org/2000/svg" xmlns:xlink="http://www.w3.org/1999/xlink" overflow="hidden"><g><rect x="0" y="0" width="599" height="720" fill="#000000" fill-opacity="0"/><path d="M345.091 659.344 345.091 684.61 355.681 684.61C359.551 684.61 362.779 683.356 365.365 680.848 367.95 678.34 369.243 675.089 369.243 671.094 369.243 667.534 368.128 664.685 365.899 662.549 363.669 660.412 360.418 659.344 356.145 659.344ZM293.722 658.415C286.57 658.415 280.787 660.9 276.375 665.869 271.962 670.839 269.756 677.442 269.756 685.678 269.756 693.759 271.916 700.3 276.235 705.3 280.555 710.301 286.198 712.801 293.165 712.801 300.224 712.801 305.922 710.309 310.257 705.324 314.592 700.339 316.759 693.836 316.759 685.817 316.759 677.55 314.638 670.916 310.396 665.916 306.154 660.915 300.596 658.415 293.722 658.415ZM98.7249 658.415C91.5723 658.415 85.7897 660.9 81.3775 665.869 76.9651 670.839 74.759 677.442 74.759 685.678 74.759 693.759 76.9186 700.3 81.2381 705.3 85.5575 710.301 91.2007 712.801 98.1675 712.801 105.227 712.801 110.925 710.309 115.26 705.324 119.594 700.339 121.762 693.836 121.762 685.817 121.762 677.55 119.641 670.916 115.399 665.916 111.157 660.915 105.599 658.415 98.7249 658.415ZM531.097 652.284 541.407 652.284 561.844 698.729C562.618 700.493 563.237 701.941 563.701 703.071 564.166 704.201 564.568 705.293 564.909 706.345L565.188 706.345C565.714 705.045 566.264 703.683 566.836 702.258 567.409 700.834 567.928 699.596 568.392 698.543L589.246 652.284 599 652.284 599 718.885 591.244 718.885 591.244 674.206C591.244 672.379 591.259 670.669 591.29 669.074 591.321 667.479 591.367 665.629 591.429 663.524L591.244 663.524C590.996 664.329 590.764 665.026 590.547 665.614 590.33 666.202 590.052 666.899 589.711 667.704L566.953 718.885 563.144 718.885 540.432 668.075C540.185 667.549 539.906 666.914 539.596 666.171 539.286 665.428 538.961 664.546 538.621 663.524L538.435 663.524C538.497 664.608 538.543 666.047 538.574 667.843 538.605 669.639 538.621 671.791 538.621 674.299L538.621 718.885 531.097 718.885ZM466.054 652.284 473.857 652.284 473.857 692.505C473.857 699.162 475.452 704.201 478.641 707.623 481.83 711.044 485.995 712.755 491.135 712.755 496.089 712.755 500.106 711.106 503.187 707.808 506.268 704.511 507.809 699.642 507.809 693.202L507.809 652.284 515.612 652.284 515.612 693.062C515.612 700.679 513.475 707.073 509.202 712.244 504.929 717.415 498.628 720 490.299 720 482.341 720 476.311 717.515 472.208 712.546 468.105 707.576 466.054 701.066 466.054 693.016ZM441.921 652.284 449.724 652.284 449.724 718.885 441.921 718.885ZM385.787 652.284 432 652.284 432 659.344 412.772 659.344 412.772 718.885 404.969 718.885 404.969 659.344 385.787 659.344ZM337.288 652.284 356.749 652.284C362.663 652.284 367.586 653.817 371.519 656.882 375.451 659.948 377.417 664.468 377.417 670.444 377.417 674.779 376.233 678.58 373.864 681.846 371.495 685.113 368.345 687.458 364.413 688.883L364.413 689.022C365.651 689.889 366.704 690.856 367.571 691.924 368.438 692.993 369.475 694.518 370.683 696.499L384.477 718.885 375.188 718.885 363.762 699.983C361.378 696.05 359.466 693.682 358.026 692.877 356.586 692.072 354.829 691.669 352.755 691.669L345.091 691.669 345.091 718.885 337.288 718.885ZM142.291 652.284 152.416 652.284 185.764 704.534C186.352 705.463 186.801 706.198 187.111 706.74 187.421 707.282 187.777 707.909 188.179 708.621L188.365 708.621C188.303 707.692 188.256 706.446 188.226 704.882 188.195 703.319 188.179 701.422 188.179 699.193L188.179 652.284 195.982 652.284 195.982 718.885 186.414 718.885 152.137 665.8C151.642 665.057 151.286 664.523 151.069 664.197 150.852 663.872 150.558 663.416 150.187 662.827L149.908 662.827C149.97 663.416 150.016 664.375 150.047 665.707 150.078 667.038 150.094 668.726 150.094 670.769L150.094 718.885 142.291 718.885ZM232.786 651.263C237.306 651.263 241.293 652.308 244.745 654.398 248.198 656.488 251.023 659.7 253.222 664.035L246.348 667.054C244.8 663.988 242.888 661.798 240.612 660.482 238.336 659.166 235.696 658.508 232.693 658.508 228.791 658.508 225.734 659.414 223.52 661.225 221.306 663.036 220.199 665.521 220.199 668.679 220.199 671.837 221.166 674.284 223.102 676.017 225.037 677.751 228.435 679.253 233.296 680.523 240.387 682.38 245.419 684.896 248.391 688.07 251.364 691.243 252.85 695.462 252.85 700.726 252.85 706.082 251.015 710.634 247.346 714.38 243.677 718.127 238.452 720 231.671 720 226.097 720 221.406 718.847 217.598 716.54 213.789 714.233 211.034 710.959 209.331 706.717L216.483 703.327C217.846 706.392 219.765 708.73 222.242 710.34 224.72 711.95 227.754 712.755 231.346 712.755 235.557 712.755 238.901 711.756 241.378 709.759 243.855 707.762 245.094 704.952 245.094 701.329 245.094 697.924 243.925 695.191 241.587 693.132 239.249 691.073 235.758 689.409 231.113 688.139 224.394 686.313 219.603 683.936 216.739 681.01 213.874 678.084 212.442 674.268 212.442 669.562 212.442 663.617 214.486 659.081 218.573 655.954 222.66 652.826 227.398 651.263 232.786 651.263ZM294.28 651.17C303.445 651.17 310.845 654.235 316.481 660.366 322.116 666.496 324.934 674.624 324.934 684.749 324.934 695.245 322.008 703.745 316.155 710.247 310.303 716.749 302.64 720 293.165 720 283.752 720 276.135 716.896 270.314 710.688 264.492 704.48 261.582 696.375 261.582 686.374 261.582 675.754 264.593 667.232 270.616 660.807 276.638 654.382 284.526 651.17 294.28 651.17ZM99.2822 651.17C108.448 651.17 115.848 654.235 121.483 660.366 127.119 666.496 129.936 674.624 129.936 684.749 129.936 695.245 127.01 703.745 121.158 710.247 115.306 716.749 107.642 720 98.1675 720 88.7546 720 81.1375 716.896 75.3163 710.688 69.4952 704.48 66.5845 696.375 66.5845 686.374 66.5845 675.754 69.5958 667.232 75.6183 660.807 81.6406 654.382 89.5286 651.17 99.2822 651.17ZM32.0012 651.17C38.039 651.17 43.2797 652.563 47.7229 655.35 52.1662 658.136 55.4562 662.038 57.5926 667.054L50.9044 669.933C48.9846 666.187 46.4456 663.33 43.2874 661.364 40.1291 659.398 36.367 658.415 32.0012 658.415 25.0652 658.415 19.3602 660.985 14.8859 666.125 10.4117 671.265 8.17443 678.014 8.17443 686.374 8.17443 694.27 10.3498 700.641 14.7 705.486 19.0505 710.332 24.7866 712.755 31.9082 712.755 36.8005 712.755 40.8412 711.686 44.0306 709.55 47.2198 707.414 49.7434 704.549 51.601 700.958L58.4287 704.302C56.2612 708.853 52.9713 712.608 48.559 715.565 44.1467 718.521 38.5345 720 31.7224 720 22.2785 720 14.6304 716.942 8.77824 710.827 2.92621 704.712 0 696.716 0 686.839 0 676.188 2.98812 667.58 8.9641 661.016 14.9401 654.452 22.6191 651.17 32.0012 651.17ZM253.527 160.839 299.5 221.783 345.472 160.839 346.11 236.624 419.857 213.798 374.916 275.477 448.269 299.49 374.916 323.503 419.857 385.181 346.11 362.356 345.472 438.141 299.5 377.196 253.527 438.141 252.89 362.356 179.143 385.181 224.084 323.503 150.731 299.49 224.084 275.477 179.143 213.798 252.89 236.624ZM299.5 87.7184 237.471 149.745 149.749 149.745 149.749 237.464 87.7204 299.491 149.749 361.517 149.749 449.236 237.471 449.236 299.5 511.263 361.528 449.236 449.251 449.236 449.251 361.517 511.279 299.491 449.251 237.464 449.251 149.745 361.529 149.745ZM299.5 0 387.222 87.7189 511.278 87.7189 511.278 211.771 599 299.49 511.278 387.208 511.278 511.261 387.221 511.261 299.5 598.98 211.779 511.261 87.7216 511.261 87.7216 387.208 0 299.49 87.7216 211.771 87.7216 87.7189 211.778 87.7189Z" fill="#FFFFFF" fill-rule="evenodd"/></g></svg>