<svg width="720" height="720" xmlns="http://www.w3.org/2000/svg" xmlns:xlink="http://www.w3.org/1999/xlink" overflow="hidden"><defs><clipPath id="clip0"><rect x="0" y="0" width="720" height="720"/></clipPath></defs><g clip-path="url(#clip0)"><rect x="0" y="0" width="720" height="720" fill="#FFFFFF" fill-opacity="0"/><path d="M640.074 640.033 720 640.033 720 720 640.074 720 640.074 640.033ZM0 640.033 79.9263 640.033 79.9263 720 0 720 0 640.033ZM399.843 479.949 479.77 479.949 479.77 559.915 479.719 560.066 479.77 560.066 559.646 560.066 559.646 640.033 559.646 640.033 559.646 720 479.719 720 479.719 640.033 479.719 640.033 399.843 640.033 399.843 479.949ZM239.389 479.949 319.316 479.949 319.316 640.033 239.389 640.033 239.389 640.033 239.439 640.033 239.439 720 159.513 720 159.463 560.066 239.389 560.066 239.389 479.949ZM479.719 399.932 640.023 399.932 640.023 479.898 640.074 479.898 640.074 479.949 720 479.949 720 559.915C666.716 559.899 613.431 559.882 560.147 559.865L560.147 479.899 479.719 479.899 479.719 399.932ZM79.9766 399.932 239.439 399.932 239.439 479.898 159.903 479.898 159.903 479.949 159.903 559.915 0 559.915 0 479.949 79.9263 479.949 79.9766 479.898 79.9766 399.932ZM79.9766 239.897 79.9263 239.897 79.9766 239.897ZM640.074 239.895 640.023 239.895 640.074 239.895ZM479.719 159.932 479.719 159.98 479.719 159.932ZM640.074 4.89407e-15 720 0 720 79.9672 640.074 79.9672 640.074 4.89407e-15ZM479.719 1.4713e-14 559.646 9.81885e-15 559.646 159.983 479.77 159.983 479.77 239.948 560.097 239.948 560.097 159.98 720 159.98 720 239.948 640.074 239.948 640.074 319.864C586.639 319.882 533.205 319.899 479.77 319.916L479.77 399.73 399.843 399.73 399.442 399.881 399.442 399.932 399.442 479.899 319.516 479.899 319.516 399.932 319.516 399.881C319.449 399.898 319.382 399.915 319.316 399.931L239.389 399.931 239.389 319.964 319.316 319.964C319.382 319.948 319.449 319.932 319.516 319.916L319.516 319.864 319.516 239.897 399.442 239.897 399.442 319.864 399.442 319.916 399.843 319.765 479.719 319.765 479.719 239.948 399.843 239.948 399.843 79.9672 479.719 79.9672 479.719 1.4713e-14ZM159.513 3.43199e-14 239.439 2.94258e-14 239.439 80.0155 319.015 80.0155 319.316 239.948 239.439 239.948 239.439 319.864 79.9263 319.864 79.9263 239.948 0 239.948 0 159.982 159.903 160.231 159.903 239.897 239.389 239.897 239.389 159.983 239.088 159.983 158.911 159.983 159.513 3.43199e-14ZM0 4.40873e-14 79.9263 3.91932e-14 79.9263 79.9672 0 79.9672 0 4.40873e-14Z" fill="#FFDE00" fill-rule="evenodd"/></g></svg>