<svg version="1.2" xmlns="http://www.w3.org/2000/svg" viewBox="0 0 720 720" width="720" height="720">
	<title>e-mel-svg</title>
	<defs>
		<clipPath clipPathUnits="userSpaceOnUse" id="cp1">
			<path d="m0 0h720v720h-720z"/>
		</clipPath>
	</defs>
	<style>
		.s0 { fill: #ffde00 } 
	</style>
	<g id="Clip-Path" clip-path="url(#cp1)">
		<g id="Layer">
			<path id="Layer" fill-rule="evenodd" class="s0" d="m360 0c198.8 0 360 161.2 360 360 0 198.8-161.2 360-360 360-198.8 0-360-161.2-360-360 0-198.8 161.2-360 360-360zm0 72.5l-69.7 58.1h-81.4v51.1l-81.3 77.3v324.8h464.8v-324.8l-81.3-77.8v-50.6h-81.4zm-197.5 241.2l116.2 110.4-116.2 110.4zm81.3-148.2h232.4v193.5l-52.3 49.9c-37.7-29-90-29-127.8 0l-52.3-49.9zm116.8 33.7c-41.8 0-75.5 33.7-75.5 75.5-0.6 42.4 33.1 76.1 74.9 76.7 13.4 0 26.2-3.5 37.8-9.3 4.6-2.9 6.4-8.7 4.1-13.3-2.9-4.7-8.8-6.4-13.4-4.1-8.7 4.6-18.6 7-28.5 7-30.8 0-56.3-25.6-55.8-56.4 0-30.8 25.6-56.4 56.4-56.4 30.8 0 56.4 25 56.4 56.4v18.6c-10.5 0-18.6-8.1-18.6-18.6 0-18.6-12.8-34.3-30.8-37.8-18-3.5-36 6.4-42.4 23.3-6.4 16.8 0 36.6 15.7 45.9 15.6 9.3 36 6.4 48.2-7.6 7 8.2 17.4 12.8 28.5 12.8 10.4 0 18.5-8.1 18.5-18.6v-18.6c0-41.8-33.7-75.5-75.5-75.5zm-0.6 58.7c10.5 0 18.6 8.1 18.6 18.6 0 10.4-8.1 18.6-18.6 18.6-10.4 0-18.6-8.8-18.6-18.6 0-10.5 8.8-18.6 18.6-18.6zm0.3 152.6c20.2 0 40.4 7.4 56.1 22.3l8.1 7.5 114.5 108.7h-357.9l115-108.7 8.1-7.5c15.7-14.9 35.9-22.3 56.1-22.3zm197.3-96.3v220.8l-116.2-110.4z"/>
		</g>
	</g>
</svg>