<svg version="1.2" xmlns="http://www.w3.org/2000/svg" viewBox="0 0 720 720" width="720" height="720">
	<title>instagram-svg</title>
	<defs>
		<clipPath clipPathUnits="userSpaceOnUse" id="cp1">
			<path d="m0 0h720v720h-720z"/>
		</clipPath>
	</defs>
	<style>
		.s0 { fill: #ffde00 } 
	</style>
	<g id="Clip-Path" clip-path="url(#cp1)">
		<g id="Layer">
			<path id="Layer" fill-rule="evenodd" class="s0" d="m360 0c198.8 0 360 161.2 360 360 0 198.8-161.2 360-360 360-198.8 0-360-161.2-360-360 0-198.8 161.2-360 360-360zm0 137.4c-60.5 0-68 0.3-91.8 1.4-23.7 1.1-39.8 4.8-54 10.3-14.6 5.7-27 13.3-39.4 25.7-12.4 12.4-20 24.8-25.7 39.4-5.5 14.2-9.2 30.3-10.3 54-1.2 23.8-1.4 31.3-1.4 91.8 0 60.5 0.3 68 1.4 91.8 1.1 23.6 4.8 39.8 10.3 54 5.7 14.6 13.3 27 25.7 39.4 12.4 12.4 24.8 20 39.4 25.7 14.2 5.5 30.4 9.2 54 10.3 23.8 1.1 31.3 1.4 91.8 1.4 60.5 0 68-0.3 91.8-1.4 23.6-1.1 39.8-4.8 54-10.3 14.6-5.7 27-13.3 39.4-25.7 12.4-12.4 20-24.7 25.7-39.4 5.5-14.2 9.2-30.4 10.3-54 1.1-23.8 1.4-31.3 1.4-91.8 0-60.5-0.3-68-1.4-91.8-1.1-23.6-4.8-39.8-10.3-54-5.7-14.6-13.3-27-25.7-39.4-12.4-12.4-24.7-20-39.4-25.7-14.2-5.5-30.4-9.2-54-10.3-23.8-1.2-31.3-1.4-91.8-1.4zm-0.8 39.5l0.8 0.6c59.4 0 66.5 0.3 90 1.3 21.7 1 33.4 4.6 41.3 7.7 10.4 4 17.8 8.9 25.6 16.6 7.8 7.8 12.6 15.2 16.6 25.6 3.1 7.9 6.7 19.6 7.7 41.3 1 23.5 1.3 30.6 1.3 90 0 59.4-0.3 66.5-1.4 90-1.1 21.7-4.7 33.4-7.8 41.3-4.2 10.4-8.9 17.8-16.7 25.6-7.8 7.8-15.3 12.6-25.6 16.6-7.8 3.1-19.7 6.7-41.4 7.7-23.7 1-30.6 1.3-90.2 1.3-59.5 0-66.5-0.3-90.1-1.4-21.7-1.1-33.7-4.7-41.5-7.8-10.5-4.2-17.8-8.9-25.5-16.7-7.8-7.8-12.8-15.3-16.7-25.6-3.1-7.8-6.7-19.7-7.8-41.4-0.8-23.4-1.1-30.6-1.1-89.9 0-59.3 0.3-66.5 1.1-90.1 1.1-21.7 4.7-33.7 7.8-41.5 3.9-10.5 8.9-17.8 16.7-25.6 7.7-7.8 15-12.8 25.5-16.6 7.8-3.1 19.5-6.7 41.2-7.9 23.7-0.8 30.6-1.1 90.2-1.1zm0.8 68.8c-63.2 0-114.3 51.2-114.3 114.3 0 63.2 51.2 114.3 114.3 114.3 63.2 0 114.3-51.2 114.3-114.3 0-63.2-51.2-114.3-114.3-114.3zm0 40.1c41 0 74.2 33.2 74.2 74.2 0 41-33.2 74.2-74.2 74.2-41 0-74.2-33.2-74.2-74.2 0-41 33.2-74.2 74.2-74.2zm118.8-71.3c-14.7 0-26.7 12-26.7 26.7 0 14.7 12 26.7 26.7 26.7 14.7 0 26.7-12 26.7-26.7 0-14.7-12-26.7-26.7-26.7z"/>
		</g>
	</g>
</svg>