<svg width="720" height="720" xmlns="http://www.w3.org/2000/svg" xmlns:xlink="http://www.w3.org/1999/xlink" overflow="hidden"><defs><clipPath id="clip0"><rect x="0" y="0" width="720" height="720"/></clipPath></defs><g clip-path="url(#clip0)"><rect x="0" y="0" width="720" height="720" fill="#FFFFFF" fill-opacity="0"/><path d="M184.719 299.181 184.719 540.657 259.87 540.657 259.87 299.181ZM450.955 293.089C414.412 293.089 389.952 313.121 379.895 332.099L378.925 332.099 378.925 299.183 306.935 299.183 306.935 540.659 381.876 540.659 381.876 421.165C381.876 389.664 387.844 359.193 426.917 359.193 465.399 359.193 465.968 395.229 465.968 423.233L465.968 540.659 540.909 540.659 540.929 540.659 540.929 408.113C540.929 343.064 526.887 293.089 450.955 293.089ZM222.294 179.098C198.192 179.098 178.793 198.604 178.793 222.599 178.793 246.616 198.17 266.141 222.294 266.141 246.311 266.141 265.817 246.616 265.817 222.599 265.817 198.604 246.331 179.098 222.294 179.098ZM360 0C558.822 0 720 161.178 720 360 720 558.822 558.822 720 360 720 161.178 720 0 558.822 0 360 0 161.178 161.178 0 360 0Z" fill="#FFDE00" fill-rule="evenodd"/></g></svg>