<svg version="1.2" xmlns="http://www.w3.org/2000/svg" viewBox="0 0 720 720" width="720" height="720">
	<title>twitter-svg</title>
	<defs>
		<clipPath clipPathUnits="userSpaceOnUse" id="cp1">
			<path d="m0 0h720v720h-720z"/>
		</clipPath>
	</defs>
	<style>
		.s0 { fill: #ffde00 } 
	</style>
	<g id="Clip-Path" clip-path="url(#cp1)">
		<g id="Layer">
			<path id="Layer" fill-rule="evenodd" class="s0" d="m360 0c198.8 0 360 161.2 360 360 0 198.8-161.2 360-360 360-198.8 0-360-161.2-360-360 0-198.8 161.2-360 360-360zm87.8 179.2c-23.3-0.8-47 7.3-65.4 24.5-23.8 22.3-33.9 55.7-26.5 87.5-75.8-3.6-143-40.1-188.1-95.1-8.1 13.9-12.4 29.7-12.3 45.9 0 31.7 16.1 59.6 40.6 76-14.5-0.5-28.7-4.4-41.3-11.5l-0.1 1.1c0 43.5 30.6 80.9 73.2 89.6-13.3 3.6-27.4 4.1-41 1.6 12 37.1 46.3 62.6 85.4 63.3-32.3 25.4-72.1 39.1-113.2 39.1-7.2 0-14.4-0.5-21.7-1.3 41.9 26.8 90.5 41 140.2 41 167.9 0 259.6-139 259.6-259.4 0-3.9 0-7.8-0.3-11.7 18-12.9 33.4-28.9 45.7-47.2l-0.9-0.4c-16.7 7.3-34.3 12.2-52.4 14.4 19-11.5 33.3-29.4 40.1-50.5-17.6 10.3-37.2 17.8-58 21.9-17.2-18.4-40.2-28.1-63.6-28.9z"/>
		</g>
	</g>
</svg>