<?xml version="1.0" encoding="UTF-8" standalone="no"?><!DOCTYPE svg PUBLIC "-//W3C//DTD SVG 1.1//EN" "http://www.w3.org/Graphics/SVG/1.1/DTD/svg11.dtd"><svg width="100%" height="100%" viewBox="0 0 3000 3000" version="1.1" xmlns="http://www.w3.org/2000/svg" xmlns:xlink="http://www.w3.org/1999/xlink" xml:space="preserve" xmlns:serif="http://www.serif.com/" style="fill-rule:evenodd;clip-rule:evenodd;stroke-linejoin:round;stroke-miterlimit:2;"><g id="Clip-Path"><g id="Layer"></g><path id="Layer1" serif:id="Layer" d="M1500,0c828.333,0 1500,671.667 1500,1500c0,828.333 -671.667,1500 -1500,1500c-828.333,0 -1500,-671.667 -1500,-1500c0,-828.333 671.667,-1500 1500,-1500Zm533.449,661.582l-468.74,535.814l-405.279,-535.814l-586.978,0l701.347,917.1l-664.714,759.736l284.632,-0l513.025,-586.205l448.36,586.205l572.446,-0l-731.1,-966.545l621.461,-710.291l-284.46,0Zm-99.837,1506.57l-1028.97,-1345.25l169.145,-0l1017.45,1345.25l-157.623,0Z" style="fill:#ffde00;"/></g></svg>