<svg version="1.2" xmlns="http://www.w3.org/2000/svg" viewBox="0 0 720 720" width="720" height="720">
	<title>youtube-svg</title>
	<defs>
		<clipPath clipPathUnits="userSpaceOnUse" id="cp1">
			<path d="m0 0h720v720h-720z"/>
		</clipPath>
	</defs>
	<style>
		.s0 { fill: #ffde00 } 
	</style>
	<g id="Clip-Path" clip-path="url(#cp1)">
		<g id="Layer">
			<path id="Layer" fill-rule="evenodd" class="s0" d="m360 0c198.8 0 360 161.2 360 360 0 198.8-161.2 360-360 360-198.8 0-360-161.2-360-360 0-198.8 161.2-360 360-360zm0 203.2c0 0-139.2 0-173.9 9.3-19.3 5.3-34.2 20.4-39.4 39.7-9.3 34.9-9.3 107.8-9.3 107.8 0 0 0 72.9 9.3 107.8 5.2 19.3 20.2 34.4 39.4 39.7 34.7 9.3 173.9 9.3 173.9 9.3 0 0 139.2 0 173.9-9.3 19.3-5.3 34.3-20.4 39.4-39.7 9.3-34.9 9.3-107.8 9.3-107.8 0 0 0-72.9-9.3-107.8-5.2-19.3-20.2-34.4-39.4-39.7-34.7-9.3-173.9-9.3-173.9-9.3zm-45.5 90.6l116.3 66.2-116.3 66.2z"/>
		</g>
	</g>
</svg>